{
 "cells": [
  {
   "cell_type": "code",
   "execution_count": 13,
   "metadata": {},
   "outputs": [],
   "source": [
    "from mido import MidiFile, Message"
   ]
  },
  {
   "cell_type": "code",
   "execution_count": 43,
   "metadata": {},
   "outputs": [
    {
     "name": "stdout",
     "output_type": "stream",
     "text": [
      "MidiFile(type=0, ticks_per_beat=96, tracks=[\n",
      "  MidiTrack([\n",
      "    MetaMessage('track_name', name='', time=0),\n",
      "    MetaMessage('time_signature', numerator=4, denominator=4, clocks_per_click=36, notated_32nd_notes_per_beat=8, time=0),\n",
      "    MetaMessage('time_signature', numerator=4, denominator=4, clocks_per_click=36, notated_32nd_notes_per_beat=8, time=0),\n",
      "    Message('note_on', channel=0, note=40, velocity=70, time=48),\n",
      "    Message('note_off', channel=0, note=40, velocity=64, time=24),\n",
      "    Message('note_on', channel=0, note=41, velocity=70, time=0),\n",
      "    Message('note_off', channel=0, note=41, velocity=64, time=24),\n",
      "    Message('note_on', channel=0, note=43, velocity=70, time=0),\n",
      "    Message('note_off', channel=0, note=43, velocity=64, time=192),\n",
      "    Message('note_on', channel=0, note=44, velocity=70, time=0),\n",
      "    Message('note_off', channel=0, note=44, velocity=64, time=48),\n",
      "    Message('note_on', channel=0, note=44, velocity=70, time=0),\n",
      "    Message('note_on', channel=0, note=43, velocity=70, time=24),\n",
      "    Message('note_off', channel=0, note=44, velocity=64, time=0),\n",
      "    Message('note_on', channel=0, note=42, velocity=70, time=24),\n",
      "    Message('note_off', channel=0, note=43, velocity=64, time=0),\n",
      "    Message('note_on', channel=0, note=41, velocity=70, time=48),\n",
      "    Message('note_off', channel=0, note=42, velocity=64, time=0),\n",
      "    Message('note_off', channel=0, note=41, velocity=64, time=48),\n",
      "    Message('note_on', channel=0, note=42, velocity=70, time=0),\n",
      "    Message('note_on', channel=0, note=41, velocity=70, time=48),\n",
      "    Message('note_off', channel=0, note=42, velocity=64, time=0),\n",
      "    Message('note_on', channel=0, note=40, velocity=70, time=24),\n",
      "    Message('note_off', channel=0, note=41, velocity=64, time=0),\n",
      "    Message('note_on', channel=0, note=39, velocity=70, time=24),\n",
      "    Message('note_off', channel=0, note=40, velocity=64, time=0),\n",
      "    Message('note_off', channel=0, note=39, velocity=64, time=48),\n",
      "    Message('note_on', channel=0, note=40, velocity=70, time=0),\n",
      "    Message('note_on', channel=0, note=39, velocity=70, time=24),\n",
      "    Message('note_off', channel=0, note=40, velocity=64, time=0),\n",
      "    Message('note_off', channel=0, note=39, velocity=64, time=48),\n",
      "    Message('note_on', channel=0, note=40, velocity=70, time=0),\n",
      "    Message('note_on', channel=0, note=39, velocity=70, time=24),\n",
      "    Message('note_off', channel=0, note=40, velocity=64, time=0),\n",
      "    Message('note_off', channel=0, note=39, velocity=64, time=48),\n",
      "    Message('note_on', channel=0, note=40, velocity=70, time=0),\n",
      "    Message('note_on', channel=0, note=39, velocity=70, time=24),\n",
      "    Message('note_off', channel=0, note=40, velocity=64, time=0),\n",
      "    Message('note_off', channel=0, note=39, velocity=64, time=48),\n",
      "    Message('note_on', channel=0, note=40, velocity=70, time=0),\n",
      "    Message('note_on', channel=0, note=39, velocity=70, time=24),\n",
      "    Message('note_off', channel=0, note=40, velocity=64, time=0),\n",
      "    Message('note_off', channel=0, note=39, velocity=64, time=48),\n",
      "    Message('note_on', channel=0, note=40, velocity=70, time=0),\n",
      "    Message('note_off', channel=0, note=40, velocity=64, time=24),\n",
      "    Message('note_on', channel=0, note=41, velocity=70, time=0),\n",
      "    Message('note_off', channel=0, note=41, velocity=64, time=24),\n",
      "    Message('note_on', channel=0, note=42, velocity=70, time=0),\n",
      "    Message('note_on', channel=0, note=41, velocity=70, time=48),\n",
      "    Message('note_off', channel=0, note=42, velocity=64, time=0),\n",
      "    Message('note_off', channel=0, note=41, velocity=64, time=48),\n",
      "    Message('note_on', channel=0, note=42, velocity=70, time=0),\n",
      "    Message('note_off', channel=0, note=42, velocity=64, time=96),\n",
      "    Message('note_on', channel=0, note=43, velocity=70, time=0),\n",
      "    Message('note_on', channel=0, note=42, velocity=70, time=96),\n",
      "    Message('note_off', channel=0, note=43, velocity=64, time=0),\n",
      "    Message('note_off', channel=0, note=42, velocity=64, time=24),\n",
      "    Message('note_on', channel=0, note=43, velocity=70, time=24),\n",
      "    Message('note_off', channel=0, note=43, velocity=64, time=24),\n",
      "    Message('note_on', channel=0, note=45, velocity=70, time=24),\n",
      "    Message('note_off', channel=0, note=45, velocity=64, time=24),\n",
      "    Message('note_on', channel=0, note=44, velocity=70, time=24),\n",
      "    Message('note_off', channel=0, note=44, velocity=64, time=24),\n",
      "    Message('note_on', channel=0, note=43, velocity=70, time=24),\n",
      "    Message('note_off', channel=0, note=43, velocity=64, time=24),\n",
      "    Message('note_on', channel=0, note=41, velocity=70, time=24),\n",
      "    Message('note_off', channel=0, note=41, velocity=64, time=24),\n",
      "    Message('note_on', channel=0, note=41, velocity=70, time=120),\n",
      "    Message('note_off', channel=0, note=41, velocity=64, time=48),\n",
      "    Message('note_on', channel=0, note=42, velocity=70, time=0),\n",
      "    Message('note_on', channel=0, note=41, velocity=70, time=48),\n",
      "    Message('note_off', channel=0, note=42, velocity=64, time=0),\n",
      "    Message('note_off', channel=0, note=41, velocity=64, time=48),\n",
      "    Message('note_on', channel=0, note=42, velocity=70, time=0),\n",
      "    Message('note_on', channel=0, note=41, velocity=70, time=48),\n",
      "    Message('note_off', channel=0, note=42, velocity=64, time=0),\n",
      "    Message('note_off', channel=0, note=41, velocity=64, time=48),\n",
      "    Message('note_on', channel=0, note=42, velocity=70, time=0),\n",
      "    Message('note_on', channel=0, note=41, velocity=70, time=48),\n",
      "    Message('note_off', channel=0, note=42, velocity=64, time=0),\n",
      "    Message('note_off', channel=0, note=41, velocity=64, time=48),\n",
      "    Message('note_on', channel=0, note=42, velocity=70, time=0),\n",
      "    Message('note_off', channel=0, note=42, velocity=64, time=48),\n",
      "    Message('note_on', channel=0, note=43, velocity=70, time=0),\n",
      "    Message('note_off', channel=0, note=43, velocity=64, time=48),\n",
      "    Message('note_on', channel=0, note=44, velocity=70, time=0),\n",
      "    Message('note_on', channel=0, note=43, velocity=70, time=48),\n",
      "    Message('note_off', channel=0, note=44, velocity=64, time=0),\n",
      "    Message('note_on', channel=0, note=41, velocity=70, time=48),\n",
      "    Message('note_off', channel=0, note=43, velocity=64, time=0),\n",
      "    Message('note_off', channel=0, note=41, velocity=64, time=48),\n",
      "    Message('note_on', channel=0, note=42, velocity=70, time=0),\n",
      "    Message('note_off', channel=0, note=42, velocity=64, time=48),\n",
      "    Message('note_on', channel=0, note=43, velocity=70, time=0),\n",
      "    Message('note_off', channel=0, note=43, velocity=64, time=48),\n",
      "    Message('note_on', channel=0, note=44, velocity=70, time=0),\n",
      "    Message('note_on', channel=0, note=43, velocity=70, time=48),\n",
      "    Message('note_off', channel=0, note=44, velocity=64, time=0),\n",
      "    Message('note_on', channel=0, note=42, velocity=70, time=48),\n",
      "    Message('note_off', channel=0, note=43, velocity=64, time=0),\n",
      "    Message('note_off', channel=0, note=42, velocity=64, time=48),\n",
      "    Message('note_on', channel=0, note=43, velocity=70, time=0),\n",
      "    Message('note_on', channel=0, note=42, velocity=70, time=48),\n",
      "    Message('note_off', channel=0, note=43, velocity=64, time=0),\n",
      "    Message('note_off', channel=0, note=42, velocity=64, time=48),\n",
      "    Message('note_on', channel=0, note=43, velocity=70, time=0),\n",
      "    Message('note_off', channel=0, note=43, velocity=64, time=48),\n",
      "    Message('note_on', channel=0, note=44, velocity=70, time=0),\n",
      "    Message('note_on', channel=0, note=43, velocity=70, time=48),\n",
      "    Message('note_off', channel=0, note=44, velocity=64, time=0),\n",
      "    Message('note_off', channel=0, note=43, velocity=64, time=24),\n",
      "    Message('note_on', channel=0, note=44, velocity=70, time=0),\n",
      "    Message('note_off', channel=0, note=44, velocity=64, time=24),\n",
      "    Message('note_on', channel=0, note=45, velocity=70, time=0),\n",
      "    Message('note_on', channel=0, note=44, velocity=70, time=48),\n",
      "    Message('note_off', channel=0, note=45, velocity=64, time=0),\n",
      "    Message('note_on', channel=0, note=43, velocity=70, time=48),\n",
      "    Message('note_off', channel=0, note=44, velocity=64, time=0),\n",
      "    Message('note_on', channel=0, note=42, velocity=70, time=48),\n",
      "    Message('note_off', channel=0, note=43, velocity=64, time=0),\n",
      "    Message('note_on', channel=0, note=41, velocity=70, time=48),\n",
      "    Message('note_off', channel=0, note=42, velocity=64, time=0),\n",
      "    Message('note_off', channel=0, note=41, velocity=64, time=24),\n",
      "    Message('note_on', channel=0, note=41, velocity=70, time=0),\n",
      "    Message('note_off', channel=0, note=41, velocity=64, time=48),\n",
      "    Message('note_on', channel=0, note=41, velocity=70, time=0),\n",
      "    Message('note_off', channel=0, note=41, velocity=64, time=24),\n",
      "    Message('note_on', channel=0, note=42, velocity=70, time=0),\n",
      "    Message('note_on', channel=0, note=41, velocity=70, time=48),\n",
      "    Message('note_off', channel=0, note=42, velocity=64, time=0),\n",
      "    Message('note_off', channel=0, note=41, velocity=64, time=144),\n",
      "    Message('note_on', channel=0, note=41, velocity=80, time=0),\n",
      "    Message('note_off', channel=0, note=41, velocity=64, time=96),\n",
      "    Message('note_on', channel=0, note=42, velocity=80, time=0),\n",
      "    Message('note_on', channel=0, note=41, velocity=80, time=96),\n",
      "    Message('note_off', channel=0, note=42, velocity=64, time=0),\n",
      "    Message('note_on', channel=0, note=40, velocity=80, time=96),\n",
      "    Message('note_off', channel=0, note=41, velocity=64, time=0),\n",
      "    Message('note_off', channel=0, note=40, velocity=64, time=96),\n",
      "    Message('note_on', channel=0, note=41, velocity=80, time=0),\n",
      "    Message('note_off', channel=0, note=41, velocity=64, time=48),\n",
      "    Message('note_on', channel=0, note=41, velocity=80, time=0),\n",
      "    Message('note_on', channel=0, note=40, velocity=80, time=24),\n",
      "    Message('note_off', channel=0, note=41, velocity=64, time=0),\n",
      "    Message('note_on', channel=0, note=39, velocity=80, time=24),\n",
      "    Message('note_off', channel=0, note=40, velocity=64, time=0),\n",
      "    Message('note_off', channel=0, note=39, velocity=64, time=24),\n",
      "    Message('note_on', channel=0, note=40, velocity=80, time=24),\n",
      "    Message('note_on', channel=0, note=39, velocity=80, time=24),\n",
      "    Message('note_off', channel=0, note=40, velocity=64, time=0),\n",
      "    Message('note_off', channel=0, note=39, velocity=64, time=24),\n",
      "    Message('note_on', channel=0, note=40, velocity=80, time=24),\n",
      "    Message('note_on', channel=0, note=39, velocity=80, time=24),\n",
      "    Message('note_off', channel=0, note=40, velocity=64, time=0),\n",
      "    Message('note_off', channel=0, note=39, velocity=64, time=24),\n",
      "    Message('note_on', channel=0, note=40, velocity=80, time=24),\n",
      "    Message('note_on', channel=0, note=39, velocity=80, time=24),\n",
      "    Message('note_off', channel=0, note=40, velocity=64, time=0),\n",
      "    Message('note_off', channel=0, note=39, velocity=64, time=24),\n",
      "    Message('note_on', channel=0, note=40, velocity=80, time=24),\n",
      "    Message('note_on', channel=0, note=39, velocity=80, time=24),\n",
      "    Message('note_off', channel=0, note=40, velocity=64, time=0),\n",
      "    Message('note_off', channel=0, note=39, velocity=64, time=24),\n",
      "    Message('note_on', channel=0, note=40, velocity=80, time=24),\n",
      "    Message('note_off', channel=0, note=40, velocity=64, time=24),\n",
      "    Message('note_on', channel=0, note=41, velocity=80, time=0),\n",
      "    Message('note_off', channel=0, note=41, velocity=64, time=24),\n",
      "    Message('note_on', channel=0, note=40, velocity=80, time=24),\n",
      "    Message('note_off', channel=0, note=40, velocity=64, time=24),\n",
      "    Message('note_on', channel=0, note=41, velocity=80, time=0),\n",
      "    Message('note_off', channel=0, note=41, velocity=64, time=24),\n",
      "    Message('note_on', channel=0, note=41, velocity=80, time=24),\n",
      "    Message('note_on', channel=0, note=40, velocity=80, time=24),\n",
      "    Message('note_off', channel=0, note=41, velocity=64, time=0),\n",
      "    Message('note_off', channel=0, note=40, velocity=64, time=24),\n",
      "    Message('note_on', channel=0, note=41, velocity=80, time=24),\n",
      "    Message('note_on', channel=0, note=40, velocity=80, time=24),\n",
      "    Message('note_off', channel=0, note=41, velocity=64, time=0),\n",
      "    Message('note_off', channel=0, note=40, velocity=64, time=24),\n",
      "    Message('note_on', channel=0, note=40, velocity=80, time=24),\n",
      "    Message('note_off', channel=0, note=40, velocity=64, time=24),\n",
      "    Message('note_on', channel=0, note=41, velocity=80, time=0),\n",
      "    Message('note_off', channel=0, note=41, velocity=64, time=24),\n",
      "    Message('note_on', channel=0, note=42, velocity=80, time=0),\n",
      "    Message('note_off', channel=0, note=42, velocity=64, time=24),\n",
      "    Message('note_on', channel=0, note=44, velocity=80, time=24),\n",
      "    Message('note_off', channel=0, note=44, velocity=64, time=24),\n",
      "    Message('note_on', channel=0, note=43, velocity=80, time=24),\n",
      "    Message('note_off', channel=0, note=43, velocity=64, time=24),\n",
      "    Message('note_on', channel=0, note=44, velocity=80, time=0),\n",
      "    Message('note_off', channel=0, note=44, velocity=64, time=24),\n",
      "    Message('note_on', channel=0, note=43, velocity=80, time=24),\n",
      "    Message('note_off', channel=0, note=43, velocity=64, time=24),\n",
      "    Message('note_on', channel=0, note=44, velocity=80, time=0),\n",
      "    Message('note_off', channel=0, note=44, velocity=64, time=24),\n",
      "    Message('note_on', channel=0, note=42, velocity=80, time=24),\n",
      "    Message('note_off', channel=0, note=42, velocity=64, time=24),\n",
      "    Message('note_on', channel=0, note=43, velocity=80, time=24),\n",
      "    Message('note_on', channel=0, note=42, velocity=80, time=24),\n",
      "    Message('note_off', channel=0, note=43, velocity=64, time=0),\n",
      "    Message('note_off', channel=0, note=42, velocity=64, time=24),\n",
      "    Message('note_on', channel=0, note=43, velocity=80, time=24),\n",
      "    Message('note_on', channel=0, note=42, velocity=80, time=24),\n",
      "    Message('note_off', channel=0, note=43, velocity=64, time=0),\n",
      "    Message('note_off', channel=0, note=42, velocity=64, time=24),\n",
      "    Message('note_on', channel=0, note=42, velocity=80, time=24),\n",
      "    Message('note_off', channel=0, note=42, velocity=64, time=24),\n",
      "    Message('note_on', channel=0, note=43, velocity=80, time=0),\n",
      "    Message('note_off', channel=0, note=43, velocity=64, time=24),\n",
      "    Message('note_on', channel=0, note=42, velocity=80, time=24),\n",
      "    Message('note_off', channel=0, note=42, velocity=64, time=24),\n",
      "    Message('note_on', channel=0, note=43, velocity=80, time=24),\n",
      "    Message('note_on', channel=0, note=42, velocity=80, time=24),\n",
      "    Message('note_off', channel=0, note=43, velocity=64, time=0),\n",
      "    Message('note_off', channel=0, note=42, velocity=64, time=24),\n",
      "    Message('note_on', channel=0, note=44, velocity=80, time=24),\n",
      "    Message('note_off', channel=0, note=44, velocity=64, time=24),\n",
      "    Message('note_on', channel=0, note=43, velocity=80, time=24),\n",
      "    Message('note_off', channel=0, note=43, velocity=64, time=24),\n",
      "    Message('note_on', channel=0, note=44, velocity=80, time=0),\n",
      "    Message('note_off', channel=0, note=44, velocity=64, time=24),\n",
      "    Message('note_on', channel=0, note=43, velocity=80, time=24),\n",
      "    Message('note_off', channel=0, note=43, velocity=64, time=24),\n",
      "    Message('note_on', channel=0, note=44, velocity=80, time=0),\n",
      "    Message('note_off', channel=0, note=44, velocity=64, time=24),\n",
      "    Message('note_on', channel=0, note=45, velocity=80, time=24),\n",
      "    Message('note_off', channel=0, note=45, velocity=64, time=24),\n",
      "    Message('note_on', channel=0, note=44, velocity=80, time=24),\n",
      "    Message('note_off', channel=0, note=44, velocity=64, time=24),\n",
      "    Message('note_on', channel=0, note=45, velocity=80, time=0),\n",
      "    Message('note_off', channel=0, note=45, velocity=64, time=24),\n",
      "    Message('note_on', channel=0, note=44, velocity=80, time=24),\n",
      "    Message('note_off', channel=0, note=44, velocity=64, time=24),\n",
      "    Message('note_on', channel=0, note=45, velocity=80, time=0),\n",
      "    Message('note_off', channel=0, note=45, velocity=64, time=24),\n",
      "    Message('note_on', channel=0, note=43, velocity=80, time=24),\n",
      "    Message('note_off', channel=0, note=43, velocity=64, time=24),\n",
      "    Message('note_on', channel=0, note=44, velocity=80, time=24),\n",
      "    Message('note_on', channel=0, note=43, velocity=80, time=24),\n",
      "    Message('note_off', channel=0, note=44, velocity=64, time=0),\n",
      "    Message('note_off', channel=0, note=43, velocity=64, time=24),\n",
      "    Message('note_on', channel=0, note=44, velocity=80, time=24),\n",
      "    Message('note_on', channel=0, note=43, velocity=80, time=24),\n",
      "    Message('note_off', channel=0, note=44, velocity=64, time=0),\n",
      "    Message('note_off', channel=0, note=43, velocity=64, time=24),\n",
      "    Message('note_on', channel=0, note=43, velocity=80, time=24),\n",
      "    Message('note_off', channel=0, note=43, velocity=64, time=24),\n",
      "    Message('note_on', channel=0, note=44, velocity=80, time=0),\n",
      "    Message('note_off', channel=0, note=44, velocity=64, time=24),\n",
      "    Message('note_on', channel=0, note=43, velocity=80, time=24),\n",
      "    Message('note_off', channel=0, note=43, velocity=64, time=24),\n",
      "    Message('note_on', channel=0, note=44, velocity=80, time=24),\n",
      "    Message('note_on', channel=0, note=43, velocity=80, time=24),\n",
      "    Message('note_off', channel=0, note=44, velocity=64, time=0),\n",
      "    Message('note_off', channel=0, note=43, velocity=64, time=24),\n",
      "    Message('note_on', channel=0, note=40, velocity=80, time=24),\n",
      "    Message('note_off', channel=0, note=40, velocity=64, time=24),\n",
      "    Message('note_on', channel=0, note=40, velocity=85, time=168),\n",
      "    Message('note_off', channel=0, note=40, velocity=64, time=24),\n",
      "    Message('note_on', channel=0, note=41, velocity=85, time=0),\n",
      "    Message('note_off', channel=0, note=41, velocity=64, time=24),\n",
      "    Message('note_on', channel=0, note=43, velocity=85, time=0),\n",
      "    Message('note_off', channel=0, note=43, velocity=64, time=48),\n",
      "    Message('note_on', channel=0, note=43, velocity=85, time=0),\n",
      "    Message('note_off', channel=0, note=43, velocity=64, time=9),\n",
      "    Message('note_on', channel=0, note=43, velocity=85, time=39),\n",
      "    Message('note_off', channel=0, note=43, velocity=64, time=48),\n",
      "    Message('note_on', channel=0, note=43, velocity=85, time=0),\n",
      "    Message('note_off', channel=0, note=43, velocity=64, time=9),\n",
      "    Message('note_on', channel=0, note=43, velocity=85, time=39),\n",
      "    Message('note_on', channel=0, note=41, velocity=80, time=96),\n",
      "    Message('note_off', channel=0, note=43, velocity=64, time=0),\n",
      "    Message('note_off', channel=0, note=41, velocity=64, time=96),\n",
      "    Message('note_on', channel=0, note=42, velocity=80, time=0),\n",
      "    Message('note_on', channel=0, note=41, velocity=80, time=96),\n",
      "    Message('note_off', channel=0, note=42, velocity=64, time=0),\n",
      "    Message('note_on', channel=0, note=40, velocity=80, time=96),\n",
      "    Message('note_off', channel=0, note=41, velocity=64, time=0),\n",
      "    Message('note_off', channel=0, note=40, velocity=64, time=96),\n",
      "    Message('note_on', channel=0, note=41, velocity=80, time=0),\n",
      "    Message('note_off', channel=0, note=41, velocity=64, time=48),\n",
      "    Message('note_on', channel=0, note=41, velocity=80, time=0),\n",
      "    Message('note_on', channel=0, note=40, velocity=80, time=24),\n",
      "    Message('note_off', channel=0, note=41, velocity=64, time=0),\n",
      "    Message('note_on', channel=0, note=39, velocity=80, time=24),\n",
      "    Message('note_off', channel=0, note=40, velocity=64, time=0),\n",
      "    Message('note_off', channel=0, note=39, velocity=64, time=24),\n",
      "    Message('note_on', channel=0, note=40, velocity=80, time=24),\n",
      "    Message('note_on', channel=0, note=39, velocity=80, time=24),\n",
      "    Message('note_off', channel=0, note=40, velocity=64, time=0),\n",
      "    Message('note_off', channel=0, note=39, velocity=64, time=24),\n",
      "    Message('note_on', channel=0, note=40, velocity=80, time=24),\n",
      "    Message('note_on', channel=0, note=39, velocity=80, time=24),\n",
      "    Message('note_off', channel=0, note=40, velocity=64, time=0),\n",
      "    Message('note_off', channel=0, note=39, velocity=64, time=24),\n",
      "    Message('note_on', channel=0, note=40, velocity=80, time=24),\n",
      "    Message('note_on', channel=0, note=39, velocity=80, time=24),\n",
      "    Message('note_off', channel=0, note=40, velocity=64, time=0),\n",
      "    Message('note_off', channel=0, note=39, velocity=64, time=24),\n",
      "    Message('note_on', channel=0, note=40, velocity=80, time=24),\n",
      "    Message('note_on', channel=0, note=39, velocity=80, time=24),\n",
      "    Message('note_off', channel=0, note=40, velocity=64, time=0),\n",
      "    Message('note_off', channel=0, note=39, velocity=64, time=24),\n",
      "    Message('note_on', channel=0, note=40, velocity=80, time=24),\n",
      "    Message('note_off', channel=0, note=40, velocity=64, time=24),\n",
      "    Message('note_on', channel=0, note=41, velocity=80, time=0),\n",
      "    Message('note_off', channel=0, note=41, velocity=64, time=24),\n",
      "    Message('note_on', channel=0, note=40, velocity=80, time=24),\n",
      "    Message('note_off', channel=0, note=40, velocity=64, time=24),\n",
      "    Message('note_on', channel=0, note=41, velocity=80, time=0),\n",
      "    Message('note_off', channel=0, note=41, velocity=64, time=24),\n",
      "    Message('note_on', channel=0, note=41, velocity=80, time=24),\n",
      "    Message('note_on', channel=0, note=40, velocity=80, time=24),\n",
      "    Message('note_off', channel=0, note=41, velocity=64, time=0),\n",
      "    Message('note_off', channel=0, note=40, velocity=64, time=24),\n",
      "    Message('note_on', channel=0, note=41, velocity=80, time=24),\n",
      "    Message('note_on', channel=0, note=40, velocity=80, time=24),\n",
      "    Message('note_off', channel=0, note=41, velocity=64, time=0),\n",
      "    Message('note_off', channel=0, note=40, velocity=64, time=24),\n",
      "    Message('note_on', channel=0, note=40, velocity=80, time=24),\n",
      "    Message('note_off', channel=0, note=40, velocity=64, time=24),\n",
      "    Message('note_on', channel=0, note=41, velocity=80, time=0),\n",
      "    Message('note_off', channel=0, note=41, velocity=64, time=24),\n",
      "    Message('note_on', channel=0, note=42, velocity=80, time=0),\n",
      "    Message('note_off', channel=0, note=42, velocity=64, time=24),\n",
      "    Message('note_on', channel=0, note=44, velocity=80, time=24),\n",
      "    Message('note_off', channel=0, note=44, velocity=64, time=24),\n",
      "    Message('note_on', channel=0, note=43, velocity=80, time=24),\n",
      "    Message('note_off', channel=0, note=43, velocity=64, time=24),\n",
      "    Message('note_on', channel=0, note=44, velocity=80, time=0),\n",
      "    Message('note_off', channel=0, note=44, velocity=64, time=24),\n",
      "    Message('note_on', channel=0, note=43, velocity=80, time=24),\n",
      "    Message('note_off', channel=0, note=43, velocity=64, time=24),\n",
      "    Message('note_on', channel=0, note=44, velocity=80, time=0),\n",
      "    Message('note_off', channel=0, note=44, velocity=64, time=24),\n",
      "    Message('note_on', channel=0, note=42, velocity=80, time=24),\n",
      "    Message('note_off', channel=0, note=42, velocity=64, time=24),\n",
      "    Message('note_on', channel=0, note=43, velocity=80, time=24),\n",
      "    Message('note_on', channel=0, note=42, velocity=80, time=24),\n",
      "    Message('note_off', channel=0, note=43, velocity=64, time=0),\n",
      "    Message('note_off', channel=0, note=42, velocity=64, time=24),\n",
      "    Message('note_on', channel=0, note=43, velocity=80, time=24),\n",
      "    Message('note_on', channel=0, note=42, velocity=80, time=24),\n",
      "    Message('note_off', channel=0, note=43, velocity=64, time=0),\n",
      "    Message('note_off', channel=0, note=42, velocity=64, time=24),\n",
      "    Message('note_on', channel=0, note=42, velocity=80, time=24),\n",
      "    Message('note_off', channel=0, note=42, velocity=64, time=24),\n",
      "    Message('note_on', channel=0, note=43, velocity=80, time=0),\n",
      "    Message('note_off', channel=0, note=43, velocity=64, time=24),\n",
      "    Message('note_on', channel=0, note=42, velocity=80, time=24),\n",
      "    Message('note_off', channel=0, note=42, velocity=64, time=24),\n",
      "    Message('note_on', channel=0, note=43, velocity=80, time=24),\n",
      "    Message('note_on', channel=0, note=42, velocity=80, time=24),\n",
      "    Message('note_off', channel=0, note=43, velocity=64, time=0),\n",
      "    Message('note_off', channel=0, note=42, velocity=64, time=24),\n",
      "    Message('note_on', channel=0, note=44, velocity=80, time=24),\n",
      "    Message('note_off', channel=0, note=44, velocity=64, time=24),\n",
      "    Message('note_on', channel=0, note=43, velocity=80, time=24),\n",
      "    Message('note_off', channel=0, note=43, velocity=64, time=24),\n",
      "    Message('note_on', channel=0, note=44, velocity=80, time=0),\n",
      "    Message('note_off', channel=0, note=44, velocity=64, time=24),\n",
      "    Message('note_on', channel=0, note=43, velocity=80, time=24),\n",
      "    Message('note_off', channel=0, note=43, velocity=64, time=24),\n",
      "    Message('note_on', channel=0, note=44, velocity=80, time=0),\n",
      "    Message('note_off', channel=0, note=44, velocity=64, time=24),\n",
      "    Message('note_on', channel=0, note=45, velocity=80, time=24),\n",
      "    Message('note_off', channel=0, note=45, velocity=64, time=24),\n",
      "    Message('note_on', channel=0, note=44, velocity=80, time=24),\n",
      "    Message('note_off', channel=0, note=44, velocity=64, time=24),\n",
      "    Message('note_on', channel=0, note=45, velocity=80, time=0),\n",
      "    Message('note_off', channel=0, note=45, velocity=64, time=24),\n",
      "    Message('note_on', channel=0, note=44, velocity=80, time=24),\n",
      "    Message('note_off', channel=0, note=44, velocity=64, time=24),\n",
      "    Message('note_on', channel=0, note=45, velocity=80, time=0),\n",
      "    Message('note_off', channel=0, note=45, velocity=64, time=24),\n",
      "    Message('note_on', channel=0, note=43, velocity=80, time=24),\n",
      "    Message('note_off', channel=0, note=43, velocity=64, time=24),\n",
      "    Message('note_on', channel=0, note=44, velocity=80, time=24),\n",
      "    Message('note_on', channel=0, note=43, velocity=80, time=24),\n",
      "    Message('note_off', channel=0, note=44, velocity=64, time=0),\n",
      "    Message('note_off', channel=0, note=43, velocity=64, time=24),\n",
      "    Message('note_on', channel=0, note=44, velocity=80, time=24),\n",
      "    Message('note_on', channel=0, note=43, velocity=80, time=24),\n",
      "    Message('note_off', channel=0, note=44, velocity=64, time=0),\n",
      "    Message('note_off', channel=0, note=43, velocity=64, time=24),\n",
      "    Message('note_on', channel=0, note=43, velocity=80, time=24),\n",
      "    Message('note_off', channel=0, note=43, velocity=64, time=24),\n",
      "    Message('note_on', channel=0, note=44, velocity=80, time=0),\n",
      "    Message('note_off', channel=0, note=44, velocity=64, time=24),\n",
      "    Message('note_on', channel=0, note=43, velocity=80, time=24),\n",
      "    Message('note_off', channel=0, note=43, velocity=64, time=24),\n",
      "    Message('note_on', channel=0, note=44, velocity=80, time=24),\n",
      "    Message('note_on', channel=0, note=43, velocity=80, time=24),\n",
      "    Message('note_off', channel=0, note=44, velocity=64, time=0),\n",
      "    Message('note_off', channel=0, note=43, velocity=64, time=24),\n",
      "    Message('note_on', channel=0, note=41, velocity=80, time=24),\n",
      "    Message('note_off', channel=0, note=41, velocity=64, time=24),\n",
      "    Message('note_on', channel=0, note=42, velocity=80, time=24),\n",
      "    Message('note_on', channel=0, note=41, velocity=80, time=24),\n",
      "    Message('note_off', channel=0, note=42, velocity=64, time=0),\n",
      "    Message('note_off', channel=0, note=41, velocity=64, time=24),\n",
      "    Message('note_on', channel=0, note=42, velocity=80, time=24),\n",
      "    Message('note_on', channel=0, note=41, velocity=80, time=24),\n",
      "    Message('note_off', channel=0, note=42, velocity=64, time=0),\n",
      "    Message('note_off', channel=0, note=41, velocity=64, time=24),\n",
      "    Message('note_on', channel=0, note=43, velocity=80, time=24),\n",
      "    Message('note_off', channel=0, note=43, velocity=64, time=24),\n",
      "    Message('note_on', channel=0, note=42, velocity=80, time=24),\n",
      "    Message('note_off', channel=0, note=42, velocity=64, time=24),\n",
      "    Message('note_on', channel=0, note=43, velocity=80, time=0),\n",
      "    Message('note_off', channel=0, note=43, velocity=64, time=24),\n",
      "    Message('note_on', channel=0, note=42, velocity=80, time=24),\n",
      "    Message('note_off', channel=0, note=42, velocity=64, time=24),\n",
      "    Message('note_on', channel=0, note=43, velocity=80, time=0),\n",
      "    Message('note_off', channel=0, note=43, velocity=64, time=24),\n",
      "    Message('note_on', channel=0, note=41, velocity=80, time=24),\n",
      "    Message('note_off', channel=0, note=41, velocity=64, time=24),\n",
      "    Message('note_on', channel=0, note=42, velocity=80, time=24),\n",
      "    Message('note_on', channel=0, note=41, velocity=80, time=24),\n",
      "    Message('note_off', channel=0, note=42, velocity=64, time=0),\n",
      "    Message('note_off', channel=0, note=41, velocity=64, time=24),\n",
      "    Message('note_on', channel=0, note=42, velocity=80, time=24),\n",
      "    Message('note_on', channel=0, note=41, velocity=80, time=24),\n",
      "    Message('note_off', channel=0, note=42, velocity=64, time=0),\n",
      "    Message('note_off', channel=0, note=41, velocity=64, time=24),\n",
      "    Message('note_on', channel=0, note=41, velocity=80, time=24),\n",
      "    Message('note_off', channel=0, note=41, velocity=64, time=24),\n",
      "    Message('note_on', channel=0, note=42, velocity=80, time=0),\n",
      "    Message('note_off', channel=0, note=42, velocity=64, time=24),\n",
      "    Message('note_on', channel=0, note=41, velocity=80, time=24),\n",
      "    Message('note_off', channel=0, note=41, velocity=64, time=24),\n",
      "    Message('note_on', channel=0, note=42, velocity=80, time=24),\n",
      "    Message('note_on', channel=0, note=41, velocity=80, time=24),\n",
      "    Message('note_off', channel=0, note=42, velocity=64, time=0),\n",
      "    Message('note_off', channel=0, note=41, velocity=64, time=24),\n",
      "    Message('note_on', channel=0, note=41, velocity=80, time=24),\n",
      "    Message('note_off', channel=0, note=41, velocity=64, time=24),\n",
      "    Message('note_on', channel=0, note=42, velocity=80, time=0),\n",
      "    Message('note_off', channel=0, note=42, velocity=64, time=24),\n",
      "    Message('note_on', channel=0, note=41, velocity=80, time=24),\n",
      "    Message('note_off', channel=0, note=41, velocity=64, time=24),\n",
      "    Message('note_on', channel=0, note=42, velocity=80, time=24),\n",
      "    Message('note_on', channel=0, note=41, velocity=80, time=24),\n",
      "    Message('note_off', channel=0, note=42, velocity=64, time=0),\n",
      "    Message('note_off', channel=0, note=41, velocity=64, time=24),\n",
      "    Message('note_on', channel=0, note=41, velocity=80, time=24),\n",
      "    Message('note_on', channel=0, note=40, velocity=80, time=24),\n",
      "    Message('note_off', channel=0, note=41, velocity=64, time=0),\n",
      "    Message('note_on', channel=0, note=39, velocity=80, time=24),\n",
      "    Message('note_off', channel=0, note=40, velocity=64, time=0),\n",
      "    Message('note_off', channel=0, note=39, velocity=64, time=24),\n",
      "    Message('note_on', channel=0, note=40, velocity=80, time=24),\n",
      "    Message('note_on', channel=0, note=39, velocity=80, time=24),\n",
      "    Message('note_off', channel=0, note=40, velocity=64, time=0),\n",
      "    Message('note_off', channel=0, note=39, velocity=64, time=24),\n",
      "    Message('note_on', channel=0, note=40, velocity=80, time=24),\n",
      "    Message('note_on', channel=0, note=39, velocity=80, time=24),\n",
      "    Message('note_off', channel=0, note=40, velocity=64, time=0),\n",
      "    Message('note_off', channel=0, note=39, velocity=64, time=24),\n",
      "    Message('note_on', channel=0, note=40, velocity=80, time=24),\n",
      "    Message('note_on', channel=0, note=39, velocity=80, time=24),\n",
      "    Message('note_off', channel=0, note=40, velocity=64, time=0),\n",
      "    Message('note_off', channel=0, note=39, velocity=64, time=24),\n",
      "    Message('note_on', channel=0, note=40, velocity=80, time=24),\n",
      "    Message('note_on', channel=0, note=39, velocity=80, time=24),\n",
      "    Message('note_off', channel=0, note=40, velocity=64, time=0),\n",
      "    Message('note_off', channel=0, note=39, velocity=64, time=24),\n",
      "    Message('note_on', channel=0, note=40, velocity=80, time=24),\n",
      "    Message('note_off', channel=0, note=40, velocity=64, time=24),\n",
      "    Message('note_on', channel=0, note=41, velocity=80, time=0),\n",
      "    Message('note_off', channel=0, note=41, velocity=64, time=24),\n",
      "    Message('note_on', channel=0, note=40, velocity=80, time=24),\n",
      "    Message('note_off', channel=0, note=40, velocity=64, time=24),\n",
      "    Message('note_on', channel=0, note=41, velocity=80, time=0),\n",
      "    Message('note_off', channel=0, note=41, velocity=64, time=24),\n",
      "    Message('note_on', channel=0, note=41, velocity=80, time=24),\n",
      "    Message('note_on', channel=0, note=40, velocity=80, time=24),\n",
      "    Message('note_off', channel=0, note=41, velocity=64, time=0),\n",
      "    Message('note_off', channel=0, note=40, velocity=64, time=24),\n",
      "    Message('note_on', channel=0, note=41, velocity=80, time=24),\n",
      "    Message('note_on', channel=0, note=40, velocity=80, time=24),\n",
      "    Message('note_off', channel=0, note=41, velocity=64, time=0),\n",
      "    Message('note_off', channel=0, note=40, velocity=64, time=24),\n",
      "    Message('note_on', channel=0, note=40, velocity=80, time=24),\n",
      "    Message('note_off', channel=0, note=40, velocity=64, time=24),\n",
      "    Message('note_on', channel=0, note=41, velocity=80, time=0),\n",
      "    Message('note_off', channel=0, note=41, velocity=64, time=24),\n",
      "    Message('note_on', channel=0, note=42, velocity=80, time=0),\n",
      "    Message('note_off', channel=0, note=42, velocity=64, time=24),\n",
      "    Message('note_on', channel=0, note=44, velocity=80, time=24),\n",
      "    Message('note_off', channel=0, note=44, velocity=64, time=24),\n",
      "    Message('note_on', channel=0, note=43, velocity=80, time=24),\n",
      "    Message('note_off', channel=0, note=43, velocity=64, time=24),\n",
      "    Message('note_on', channel=0, note=44, velocity=80, time=0),\n",
      "    Message('note_off', channel=0, note=44, velocity=64, time=24),\n",
      "    Message('note_on', channel=0, note=43, velocity=80, time=24),\n",
      "    Message('note_off', channel=0, note=43, velocity=64, time=24),\n",
      "    Message('note_on', channel=0, note=44, velocity=80, time=0),\n",
      "    Message('note_off', channel=0, note=44, velocity=64, time=24),\n",
      "    Message('note_on', channel=0, note=42, velocity=80, time=24),\n",
      "    Message('note_off', channel=0, note=42, velocity=64, time=24),\n",
      "    Message('note_on', channel=0, note=43, velocity=80, time=24),\n",
      "    Message('note_on', channel=0, note=42, velocity=80, time=24),\n",
      "    Message('note_off', channel=0, note=43, velocity=64, time=0),\n",
      "    Message('note_off', channel=0, note=42, velocity=64, time=24),\n",
      "    Message('note_on', channel=0, note=43, velocity=80, time=24),\n",
      "    Message('note_on', channel=0, note=42, velocity=80, time=24),\n",
      "    Message('note_off', channel=0, note=43, velocity=64, time=0),\n",
      "    Message('note_off', channel=0, note=42, velocity=64, time=24),\n",
      "    Message('note_on', channel=0, note=42, velocity=80, time=24),\n",
      "    Message('note_off', channel=0, note=42, velocity=64, time=24),\n",
      "    Message('note_on', channel=0, note=43, velocity=80, time=0),\n",
      "    Message('note_off', channel=0, note=43, velocity=64, time=24),\n",
      "    Message('note_on', channel=0, note=42, velocity=80, time=24),\n",
      "    Message('note_off', channel=0, note=42, velocity=64, time=24),\n",
      "    Message('note_on', channel=0, note=43, velocity=80, time=24),\n",
      "    Message('note_on', channel=0, note=42, velocity=80, time=24),\n",
      "    Message('note_off', channel=0, note=43, velocity=64, time=0),\n",
      "    Message('note_off', channel=0, note=42, velocity=64, time=24),\n",
      "    Message('note_on', channel=0, note=44, velocity=80, time=24),\n",
      "    Message('note_off', channel=0, note=44, velocity=64, time=24),\n",
      "    Message('note_on', channel=0, note=43, velocity=80, time=24),\n",
      "    Message('note_off', channel=0, note=43, velocity=64, time=24),\n",
      "    Message('note_on', channel=0, note=44, velocity=80, time=0),\n",
      "    Message('note_off', channel=0, note=44, velocity=64, time=24),\n",
      "    Message('note_on', channel=0, note=43, velocity=80, time=24),\n",
      "    Message('note_off', channel=0, note=43, velocity=64, time=24),\n",
      "    Message('note_on', channel=0, note=44, velocity=80, time=0),\n",
      "    Message('note_off', channel=0, note=44, velocity=64, time=24),\n",
      "    Message('note_on', channel=0, note=45, velocity=80, time=24),\n",
      "    Message('note_off', channel=0, note=45, velocity=64, time=24),\n",
      "    Message('note_on', channel=0, note=44, velocity=80, time=24),\n",
      "    Message('note_off', channel=0, note=44, velocity=64, time=24),\n",
      "    Message('note_on', channel=0, note=45, velocity=80, time=0),\n",
      "    Message('note_off', channel=0, note=45, velocity=64, time=24),\n",
      "    Message('note_on', channel=0, note=44, velocity=80, time=24),\n",
      "    Message('note_off', channel=0, note=44, velocity=64, time=24),\n",
      "    Message('note_on', channel=0, note=45, velocity=80, time=0),\n",
      "    Message('note_off', channel=0, note=45, velocity=64, time=24),\n",
      "    Message('note_on', channel=0, note=43, velocity=80, time=24),\n",
      "    Message('note_off', channel=0, note=43, velocity=64, time=24),\n",
      "    Message('note_on', channel=0, note=44, velocity=80, time=24),\n",
      "    Message('note_on', channel=0, note=43, velocity=80, time=24),\n",
      "    Message('note_off', channel=0, note=44, velocity=64, time=0),\n",
      "    Message('note_off', channel=0, note=43, velocity=64, time=24),\n",
      "    Message('note_on', channel=0, note=44, velocity=80, time=24),\n",
      "    Message('note_on', channel=0, note=43, velocity=80, time=24),\n",
      "    Message('note_off', channel=0, note=44, velocity=64, time=0),\n",
      "    Message('note_off', channel=0, note=43, velocity=64, time=24),\n",
      "    Message('note_on', channel=0, note=43, velocity=80, time=24),\n",
      "    Message('note_off', channel=0, note=43, velocity=64, time=24),\n",
      "    Message('note_on', channel=0, note=44, velocity=80, time=0),\n",
      "    Message('note_off', channel=0, note=44, velocity=64, time=24),\n",
      "    Message('note_on', channel=0, note=43, velocity=80, time=24),\n",
      "    Message('note_off', channel=0, note=43, velocity=64, time=24),\n",
      "    Message('note_on', channel=0, note=44, velocity=80, time=24),\n",
      "    Message('note_on', channel=0, note=43, velocity=80, time=24),\n",
      "    Message('note_off', channel=0, note=44, velocity=64, time=0),\n",
      "    Message('note_off', channel=0, note=43, velocity=64, time=24),\n",
      "    Message('note_on', channel=0, note=41, velocity=80, time=24),\n",
      "    Message('note_off', channel=0, note=41, velocity=64, time=24),\n",
      "    Message('note_on', channel=0, note=42, velocity=80, time=24),\n",
      "    Message('note_on', channel=0, note=41, velocity=80, time=24),\n",
      "    Message('note_off', channel=0, note=42, velocity=64, time=0),\n",
      "    Message('note_off', channel=0, note=41, velocity=64, time=24),\n",
      "    Message('note_on', channel=0, note=42, velocity=80, time=24),\n",
      "    Message('note_on', channel=0, note=41, velocity=80, time=24),\n",
      "    Message('note_off', channel=0, note=42, velocity=64, time=0),\n",
      "    Message('note_off', channel=0, note=41, velocity=64, time=24),\n",
      "    Message('note_on', channel=0, note=43, velocity=80, time=24),\n",
      "    Message('note_off', channel=0, note=43, velocity=64, time=24),\n",
      "    Message('note_on', channel=0, note=42, velocity=80, time=24),\n",
      "    Message('note_off', channel=0, note=42, velocity=64, time=24),\n",
      "    Message('note_on', channel=0, note=43, velocity=80, time=0),\n",
      "    Message('note_off', channel=0, note=43, velocity=64, time=24),\n",
      "    Message('note_on', channel=0, note=42, velocity=80, time=24),\n",
      "    Message('note_off', channel=0, note=42, velocity=64, time=24),\n",
      "    Message('note_on', channel=0, note=43, velocity=80, time=0),\n",
      "    Message('note_off', channel=0, note=43, velocity=64, time=24),\n",
      "    Message('note_on', channel=0, note=41, velocity=80, time=24),\n",
      "    Message('note_off', channel=0, note=41, velocity=64, time=24),\n",
      "    Message('note_on', channel=0, note=42, velocity=80, time=24),\n",
      "    Message('note_on', channel=0, note=41, velocity=80, time=24),\n",
      "    Message('note_off', channel=0, note=42, velocity=64, time=0),\n",
      "    Message('note_off', channel=0, note=41, velocity=64, time=24),\n",
      "    Message('note_on', channel=0, note=42, velocity=80, time=24),\n",
      "    Message('note_on', channel=0, note=41, velocity=80, time=24),\n",
      "    Message('note_off', channel=0, note=42, velocity=64, time=0),\n",
      "    Message('note_off', channel=0, note=41, velocity=64, time=24),\n",
      "    Message('note_on', channel=0, note=41, velocity=80, time=24),\n",
      "    Message('note_off', channel=0, note=41, velocity=64, time=24),\n",
      "    Message('note_on', channel=0, note=42, velocity=80, time=0),\n",
      "    Message('note_off', channel=0, note=42, velocity=64, time=24),\n",
      "    Message('note_on', channel=0, note=41, velocity=80, time=24),\n",
      "    Message('note_off', channel=0, note=41, velocity=64, time=24),\n",
      "    Message('note_on', channel=0, note=42, velocity=80, time=24),\n",
      "    Message('note_on', channel=0, note=41, velocity=80, time=24),\n",
      "    Message('note_off', channel=0, note=42, velocity=64, time=0),\n",
      "    Message('note_off', channel=0, note=41, velocity=64, time=24),\n",
      "    Message('note_on', channel=0, note=41, velocity=80, time=24),\n",
      "    Message('note_off', channel=0, note=41, velocity=64, time=24),\n",
      "    Message('note_on', channel=0, note=42, velocity=80, time=0),\n",
      "    Message('note_off', channel=0, note=42, velocity=64, time=24),\n",
      "    Message('note_on', channel=0, note=41, velocity=80, time=24),\n",
      "    Message('note_off', channel=0, note=41, velocity=64, time=24),\n",
      "    Message('note_on', channel=0, note=42, velocity=80, time=24),\n",
      "    Message('note_off', channel=0, note=42, velocity=64, time=24),\n",
      "    MetaMessage('end_of_track', time=0)])\n",
      "])\n"
     ]
    }
   ],
   "source": [
    "datafolder = \".\\\\data\\\\puspanjali\\\\\"\n",
    "mid = MidiFile(datafolder + 'Puspanjali Intro P.mid', clip=True, type=1)\n",
    "print(mid)"
   ]
  },
  {
   "cell_type": "code",
   "execution_count": 39,
   "metadata": {},
   "outputs": [
    {
     "data": {
      "text/plain": [
       "[Message('note_on', channel=0, note=40, velocity=70, time=48),\n",
       " Message('note_off', channel=0, note=40, velocity=64, time=24),\n",
       " Message('note_on', channel=0, note=41, velocity=70, time=0),\n",
       " Message('note_off', channel=0, note=41, velocity=64, time=24),\n",
       " Message('note_on', channel=0, note=43, velocity=70, time=0),\n",
       " Message('note_off', channel=0, note=43, velocity=64, time=192),\n",
       " Message('note_on', channel=0, note=44, velocity=70, time=0),\n",
       " Message('note_off', channel=0, note=44, velocity=64, time=48),\n",
       " Message('note_on', channel=0, note=44, velocity=70, time=0),\n",
       " Message('note_on', channel=0, note=43, velocity=70, time=24),\n",
       " Message('note_off', channel=0, note=44, velocity=64, time=0),\n",
       " Message('note_on', channel=0, note=42, velocity=70, time=24),\n",
       " Message('note_off', channel=0, note=43, velocity=64, time=0),\n",
       " Message('note_on', channel=0, note=41, velocity=70, time=48),\n",
       " Message('note_off', channel=0, note=42, velocity=64, time=0),\n",
       " Message('note_off', channel=0, note=41, velocity=64, time=48),\n",
       " Message('note_on', channel=0, note=42, velocity=70, time=0),\n",
       " Message('note_on', channel=0, note=41, velocity=70, time=48),\n",
       " Message('note_off', channel=0, note=42, velocity=64, time=0),\n",
       " Message('note_on', channel=0, note=40, velocity=70, time=24),\n",
       " Message('note_off', channel=0, note=41, velocity=64, time=0),\n",
       " Message('note_on', channel=0, note=39, velocity=70, time=24),\n",
       " Message('note_off', channel=0, note=40, velocity=64, time=0),\n",
       " Message('note_off', channel=0, note=39, velocity=64, time=48),\n",
       " Message('note_on', channel=0, note=40, velocity=70, time=0),\n",
       " Message('note_on', channel=0, note=39, velocity=70, time=24),\n",
       " Message('note_off', channel=0, note=40, velocity=64, time=0),\n",
       " Message('note_off', channel=0, note=39, velocity=64, time=48),\n",
       " Message('note_on', channel=0, note=40, velocity=70, time=0),\n",
       " Message('note_on', channel=0, note=39, velocity=70, time=24),\n",
       " Message('note_off', channel=0, note=40, velocity=64, time=0),\n",
       " Message('note_off', channel=0, note=39, velocity=64, time=48),\n",
       " Message('note_on', channel=0, note=40, velocity=70, time=0),\n",
       " Message('note_on', channel=0, note=39, velocity=70, time=24),\n",
       " Message('note_off', channel=0, note=40, velocity=64, time=0),\n",
       " Message('note_off', channel=0, note=39, velocity=64, time=48),\n",
       " Message('note_on', channel=0, note=40, velocity=70, time=0),\n",
       " Message('note_on', channel=0, note=39, velocity=70, time=24),\n",
       " Message('note_off', channel=0, note=40, velocity=64, time=0),\n",
       " Message('note_off', channel=0, note=39, velocity=64, time=48),\n",
       " Message('note_on', channel=0, note=40, velocity=70, time=0),\n",
       " Message('note_off', channel=0, note=40, velocity=64, time=24),\n",
       " Message('note_on', channel=0, note=41, velocity=70, time=0),\n",
       " Message('note_off', channel=0, note=41, velocity=64, time=24),\n",
       " Message('note_on', channel=0, note=42, velocity=70, time=0),\n",
       " Message('note_on', channel=0, note=41, velocity=70, time=48),\n",
       " Message('note_off', channel=0, note=42, velocity=64, time=0),\n",
       " Message('note_off', channel=0, note=41, velocity=64, time=48),\n",
       " Message('note_on', channel=0, note=42, velocity=70, time=0),\n",
       " Message('note_off', channel=0, note=42, velocity=64, time=96),\n",
       " Message('note_on', channel=0, note=43, velocity=70, time=0),\n",
       " Message('note_on', channel=0, note=42, velocity=70, time=96),\n",
       " Message('note_off', channel=0, note=43, velocity=64, time=0),\n",
       " Message('note_off', channel=0, note=42, velocity=64, time=24),\n",
       " Message('note_on', channel=0, note=43, velocity=70, time=24),\n",
       " Message('note_off', channel=0, note=43, velocity=64, time=24),\n",
       " Message('note_on', channel=0, note=45, velocity=70, time=24),\n",
       " Message('note_off', channel=0, note=45, velocity=64, time=24),\n",
       " Message('note_on', channel=0, note=44, velocity=70, time=24),\n",
       " Message('note_off', channel=0, note=44, velocity=64, time=24),\n",
       " Message('note_on', channel=0, note=43, velocity=70, time=24),\n",
       " Message('note_off', channel=0, note=43, velocity=64, time=24),\n",
       " Message('note_on', channel=0, note=41, velocity=70, time=24),\n",
       " Message('note_off', channel=0, note=41, velocity=64, time=24),\n",
       " Message('note_on', channel=0, note=41, velocity=70, time=120),\n",
       " Message('note_off', channel=0, note=41, velocity=64, time=48),\n",
       " Message('note_on', channel=0, note=42, velocity=70, time=0),\n",
       " Message('note_on', channel=0, note=41, velocity=70, time=48),\n",
       " Message('note_off', channel=0, note=42, velocity=64, time=0),\n",
       " Message('note_off', channel=0, note=41, velocity=64, time=48),\n",
       " Message('note_on', channel=0, note=42, velocity=70, time=0),\n",
       " Message('note_on', channel=0, note=41, velocity=70, time=48),\n",
       " Message('note_off', channel=0, note=42, velocity=64, time=0),\n",
       " Message('note_off', channel=0, note=41, velocity=64, time=48),\n",
       " Message('note_on', channel=0, note=42, velocity=70, time=0),\n",
       " Message('note_on', channel=0, note=41, velocity=70, time=48),\n",
       " Message('note_off', channel=0, note=42, velocity=64, time=0),\n",
       " Message('note_off', channel=0, note=41, velocity=64, time=48),\n",
       " Message('note_on', channel=0, note=42, velocity=70, time=0),\n",
       " Message('note_off', channel=0, note=42, velocity=64, time=48),\n",
       " Message('note_on', channel=0, note=43, velocity=70, time=0),\n",
       " Message('note_off', channel=0, note=43, velocity=64, time=48),\n",
       " Message('note_on', channel=0, note=44, velocity=70, time=0),\n",
       " Message('note_on', channel=0, note=43, velocity=70, time=48),\n",
       " Message('note_off', channel=0, note=44, velocity=64, time=0),\n",
       " Message('note_on', channel=0, note=41, velocity=70, time=48),\n",
       " Message('note_off', channel=0, note=43, velocity=64, time=0),\n",
       " Message('note_off', channel=0, note=41, velocity=64, time=48),\n",
       " Message('note_on', channel=0, note=42, velocity=70, time=0),\n",
       " Message('note_off', channel=0, note=42, velocity=64, time=48),\n",
       " Message('note_on', channel=0, note=43, velocity=70, time=0),\n",
       " Message('note_off', channel=0, note=43, velocity=64, time=48),\n",
       " Message('note_on', channel=0, note=44, velocity=70, time=0),\n",
       " Message('note_on', channel=0, note=43, velocity=70, time=48),\n",
       " Message('note_off', channel=0, note=44, velocity=64, time=0),\n",
       " Message('note_on', channel=0, note=42, velocity=70, time=48),\n",
       " Message('note_off', channel=0, note=43, velocity=64, time=0),\n",
       " Message('note_off', channel=0, note=42, velocity=64, time=48),\n",
       " Message('note_on', channel=0, note=43, velocity=70, time=0),\n",
       " Message('note_on', channel=0, note=42, velocity=70, time=48),\n",
       " Message('note_off', channel=0, note=43, velocity=64, time=0),\n",
       " Message('note_off', channel=0, note=42, velocity=64, time=48),\n",
       " Message('note_on', channel=0, note=43, velocity=70, time=0),\n",
       " Message('note_off', channel=0, note=43, velocity=64, time=48),\n",
       " Message('note_on', channel=0, note=44, velocity=70, time=0),\n",
       " Message('note_on', channel=0, note=43, velocity=70, time=48),\n",
       " Message('note_off', channel=0, note=44, velocity=64, time=0),\n",
       " Message('note_off', channel=0, note=43, velocity=64, time=24),\n",
       " Message('note_on', channel=0, note=44, velocity=70, time=0),\n",
       " Message('note_off', channel=0, note=44, velocity=64, time=24),\n",
       " Message('note_on', channel=0, note=45, velocity=70, time=0),\n",
       " Message('note_on', channel=0, note=44, velocity=70, time=48),\n",
       " Message('note_off', channel=0, note=45, velocity=64, time=0),\n",
       " Message('note_on', channel=0, note=43, velocity=70, time=48),\n",
       " Message('note_off', channel=0, note=44, velocity=64, time=0),\n",
       " Message('note_on', channel=0, note=42, velocity=70, time=48),\n",
       " Message('note_off', channel=0, note=43, velocity=64, time=0),\n",
       " Message('note_on', channel=0, note=41, velocity=70, time=48),\n",
       " Message('note_off', channel=0, note=42, velocity=64, time=0),\n",
       " Message('note_off', channel=0, note=41, velocity=64, time=24),\n",
       " Message('note_on', channel=0, note=41, velocity=70, time=0),\n",
       " Message('note_off', channel=0, note=41, velocity=64, time=48),\n",
       " Message('note_on', channel=0, note=41, velocity=70, time=0),\n",
       " Message('note_off', channel=0, note=41, velocity=64, time=24),\n",
       " Message('note_on', channel=0, note=42, velocity=70, time=0),\n",
       " Message('note_on', channel=0, note=41, velocity=70, time=48),\n",
       " Message('note_off', channel=0, note=42, velocity=64, time=0),\n",
       " Message('note_off', channel=0, note=41, velocity=64, time=144),\n",
       " Message('note_on', channel=0, note=41, velocity=80, time=0),\n",
       " Message('note_off', channel=0, note=41, velocity=64, time=96),\n",
       " Message('note_on', channel=0, note=42, velocity=80, time=0),\n",
       " Message('note_on', channel=0, note=41, velocity=80, time=96),\n",
       " Message('note_off', channel=0, note=42, velocity=64, time=0),\n",
       " Message('note_on', channel=0, note=40, velocity=80, time=96),\n",
       " Message('note_off', channel=0, note=41, velocity=64, time=0),\n",
       " Message('note_off', channel=0, note=40, velocity=64, time=96),\n",
       " Message('note_on', channel=0, note=41, velocity=80, time=0),\n",
       " Message('note_off', channel=0, note=41, velocity=64, time=48),\n",
       " Message('note_on', channel=0, note=41, velocity=80, time=0),\n",
       " Message('note_on', channel=0, note=40, velocity=80, time=24),\n",
       " Message('note_off', channel=0, note=41, velocity=64, time=0),\n",
       " Message('note_on', channel=0, note=39, velocity=80, time=24),\n",
       " Message('note_off', channel=0, note=40, velocity=64, time=0),\n",
       " Message('note_off', channel=0, note=39, velocity=64, time=24),\n",
       " Message('note_on', channel=0, note=40, velocity=80, time=24),\n",
       " Message('note_on', channel=0, note=39, velocity=80, time=24),\n",
       " Message('note_off', channel=0, note=40, velocity=64, time=0),\n",
       " Message('note_off', channel=0, note=39, velocity=64, time=24),\n",
       " Message('note_on', channel=0, note=40, velocity=80, time=24),\n",
       " Message('note_on', channel=0, note=39, velocity=80, time=24),\n",
       " Message('note_off', channel=0, note=40, velocity=64, time=0),\n",
       " Message('note_off', channel=0, note=39, velocity=64, time=24),\n",
       " Message('note_on', channel=0, note=40, velocity=80, time=24),\n",
       " Message('note_on', channel=0, note=39, velocity=80, time=24),\n",
       " Message('note_off', channel=0, note=40, velocity=64, time=0),\n",
       " Message('note_off', channel=0, note=39, velocity=64, time=24),\n",
       " Message('note_on', channel=0, note=40, velocity=80, time=24),\n",
       " Message('note_on', channel=0, note=39, velocity=80, time=24),\n",
       " Message('note_off', channel=0, note=40, velocity=64, time=0),\n",
       " Message('note_off', channel=0, note=39, velocity=64, time=24),\n",
       " Message('note_on', channel=0, note=40, velocity=80, time=24),\n",
       " Message('note_off', channel=0, note=40, velocity=64, time=24),\n",
       " Message('note_on', channel=0, note=41, velocity=80, time=0),\n",
       " Message('note_off', channel=0, note=41, velocity=64, time=24),\n",
       " Message('note_on', channel=0, note=40, velocity=80, time=24),\n",
       " Message('note_off', channel=0, note=40, velocity=64, time=24),\n",
       " Message('note_on', channel=0, note=41, velocity=80, time=0),\n",
       " Message('note_off', channel=0, note=41, velocity=64, time=24),\n",
       " Message('note_on', channel=0, note=41, velocity=80, time=24),\n",
       " Message('note_on', channel=0, note=40, velocity=80, time=24),\n",
       " Message('note_off', channel=0, note=41, velocity=64, time=0),\n",
       " Message('note_off', channel=0, note=40, velocity=64, time=24),\n",
       " Message('note_on', channel=0, note=41, velocity=80, time=24),\n",
       " Message('note_on', channel=0, note=40, velocity=80, time=24),\n",
       " Message('note_off', channel=0, note=41, velocity=64, time=0),\n",
       " Message('note_off', channel=0, note=40, velocity=64, time=24),\n",
       " Message('note_on', channel=0, note=40, velocity=80, time=24),\n",
       " Message('note_off', channel=0, note=40, velocity=64, time=24),\n",
       " Message('note_on', channel=0, note=41, velocity=80, time=0),\n",
       " Message('note_off', channel=0, note=41, velocity=64, time=24),\n",
       " Message('note_on', channel=0, note=42, velocity=80, time=0),\n",
       " Message('note_off', channel=0, note=42, velocity=64, time=24),\n",
       " Message('note_on', channel=0, note=44, velocity=80, time=24),\n",
       " Message('note_off', channel=0, note=44, velocity=64, time=24),\n",
       " Message('note_on', channel=0, note=43, velocity=80, time=24),\n",
       " Message('note_off', channel=0, note=43, velocity=64, time=24),\n",
       " Message('note_on', channel=0, note=44, velocity=80, time=0),\n",
       " Message('note_off', channel=0, note=44, velocity=64, time=24),\n",
       " Message('note_on', channel=0, note=43, velocity=80, time=24),\n",
       " Message('note_off', channel=0, note=43, velocity=64, time=24),\n",
       " Message('note_on', channel=0, note=44, velocity=80, time=0),\n",
       " Message('note_off', channel=0, note=44, velocity=64, time=24),\n",
       " Message('note_on', channel=0, note=42, velocity=80, time=24),\n",
       " Message('note_off', channel=0, note=42, velocity=64, time=24),\n",
       " Message('note_on', channel=0, note=43, velocity=80, time=24),\n",
       " Message('note_on', channel=0, note=42, velocity=80, time=24),\n",
       " Message('note_off', channel=0, note=43, velocity=64, time=0),\n",
       " Message('note_off', channel=0, note=42, velocity=64, time=24),\n",
       " Message('note_on', channel=0, note=43, velocity=80, time=24),\n",
       " Message('note_on', channel=0, note=42, velocity=80, time=24),\n",
       " Message('note_off', channel=0, note=43, velocity=64, time=0),\n",
       " Message('note_off', channel=0, note=42, velocity=64, time=24),\n",
       " Message('note_on', channel=0, note=42, velocity=80, time=24),\n",
       " Message('note_off', channel=0, note=42, velocity=64, time=24),\n",
       " Message('note_on', channel=0, note=43, velocity=80, time=0),\n",
       " Message('note_off', channel=0, note=43, velocity=64, time=24),\n",
       " Message('note_on', channel=0, note=42, velocity=80, time=24),\n",
       " Message('note_off', channel=0, note=42, velocity=64, time=24),\n",
       " Message('note_on', channel=0, note=43, velocity=80, time=24),\n",
       " Message('note_on', channel=0, note=42, velocity=80, time=24),\n",
       " Message('note_off', channel=0, note=43, velocity=64, time=0),\n",
       " Message('note_off', channel=0, note=42, velocity=64, time=24),\n",
       " Message('note_on', channel=0, note=44, velocity=80, time=24),\n",
       " Message('note_off', channel=0, note=44, velocity=64, time=24),\n",
       " Message('note_on', channel=0, note=43, velocity=80, time=24),\n",
       " Message('note_off', channel=0, note=43, velocity=64, time=24),\n",
       " Message('note_on', channel=0, note=44, velocity=80, time=0),\n",
       " Message('note_off', channel=0, note=44, velocity=64, time=24),\n",
       " Message('note_on', channel=0, note=43, velocity=80, time=24),\n",
       " Message('note_off', channel=0, note=43, velocity=64, time=24),\n",
       " Message('note_on', channel=0, note=44, velocity=80, time=0),\n",
       " Message('note_off', channel=0, note=44, velocity=64, time=24),\n",
       " Message('note_on', channel=0, note=45, velocity=80, time=24),\n",
       " Message('note_off', channel=0, note=45, velocity=64, time=24),\n",
       " Message('note_on', channel=0, note=44, velocity=80, time=24),\n",
       " Message('note_off', channel=0, note=44, velocity=64, time=24),\n",
       " Message('note_on', channel=0, note=45, velocity=80, time=0),\n",
       " Message('note_off', channel=0, note=45, velocity=64, time=24),\n",
       " Message('note_on', channel=0, note=44, velocity=80, time=24),\n",
       " Message('note_off', channel=0, note=44, velocity=64, time=24),\n",
       " Message('note_on', channel=0, note=45, velocity=80, time=0),\n",
       " Message('note_off', channel=0, note=45, velocity=64, time=24),\n",
       " Message('note_on', channel=0, note=43, velocity=80, time=24),\n",
       " Message('note_off', channel=0, note=43, velocity=64, time=24),\n",
       " Message('note_on', channel=0, note=44, velocity=80, time=24),\n",
       " Message('note_on', channel=0, note=43, velocity=80, time=24),\n",
       " Message('note_off', channel=0, note=44, velocity=64, time=0),\n",
       " Message('note_off', channel=0, note=43, velocity=64, time=24),\n",
       " Message('note_on', channel=0, note=44, velocity=80, time=24),\n",
       " Message('note_on', channel=0, note=43, velocity=80, time=24),\n",
       " Message('note_off', channel=0, note=44, velocity=64, time=0),\n",
       " Message('note_off', channel=0, note=43, velocity=64, time=24),\n",
       " Message('note_on', channel=0, note=43, velocity=80, time=24),\n",
       " Message('note_off', channel=0, note=43, velocity=64, time=24),\n",
       " Message('note_on', channel=0, note=44, velocity=80, time=0),\n",
       " Message('note_off', channel=0, note=44, velocity=64, time=24),\n",
       " Message('note_on', channel=0, note=43, velocity=80, time=24),\n",
       " Message('note_off', channel=0, note=43, velocity=64, time=24),\n",
       " Message('note_on', channel=0, note=44, velocity=80, time=24),\n",
       " Message('note_on', channel=0, note=43, velocity=80, time=24),\n",
       " Message('note_off', channel=0, note=44, velocity=64, time=0),\n",
       " Message('note_off', channel=0, note=43, velocity=64, time=24),\n",
       " Message('note_on', channel=0, note=40, velocity=80, time=24),\n",
       " Message('note_off', channel=0, note=40, velocity=64, time=24),\n",
       " Message('note_on', channel=0, note=40, velocity=85, time=168),\n",
       " Message('note_off', channel=0, note=40, velocity=64, time=24),\n",
       " Message('note_on', channel=0, note=41, velocity=85, time=0),\n",
       " Message('note_off', channel=0, note=41, velocity=64, time=24),\n",
       " Message('note_on', channel=0, note=43, velocity=85, time=0),\n",
       " Message('note_off', channel=0, note=43, velocity=64, time=48),\n",
       " Message('note_on', channel=0, note=43, velocity=85, time=0),\n",
       " Message('note_off', channel=0, note=43, velocity=64, time=9),\n",
       " Message('note_on', channel=0, note=43, velocity=85, time=39),\n",
       " Message('note_off', channel=0, note=43, velocity=64, time=48),\n",
       " Message('note_on', channel=0, note=43, velocity=85, time=0),\n",
       " Message('note_off', channel=0, note=43, velocity=64, time=9),\n",
       " Message('note_on', channel=0, note=43, velocity=85, time=39),\n",
       " Message('note_on', channel=0, note=41, velocity=80, time=96),\n",
       " Message('note_off', channel=0, note=43, velocity=64, time=0),\n",
       " Message('note_off', channel=0, note=41, velocity=64, time=96),\n",
       " Message('note_on', channel=0, note=42, velocity=80, time=0),\n",
       " Message('note_on', channel=0, note=41, velocity=80, time=96),\n",
       " Message('note_off', channel=0, note=42, velocity=64, time=0),\n",
       " Message('note_on', channel=0, note=40, velocity=80, time=96),\n",
       " Message('note_off', channel=0, note=41, velocity=64, time=0),\n",
       " Message('note_off', channel=0, note=40, velocity=64, time=96),\n",
       " Message('note_on', channel=0, note=41, velocity=80, time=0),\n",
       " Message('note_off', channel=0, note=41, velocity=64, time=48),\n",
       " Message('note_on', channel=0, note=41, velocity=80, time=0),\n",
       " Message('note_on', channel=0, note=40, velocity=80, time=24),\n",
       " Message('note_off', channel=0, note=41, velocity=64, time=0),\n",
       " Message('note_on', channel=0, note=39, velocity=80, time=24),\n",
       " Message('note_off', channel=0, note=40, velocity=64, time=0),\n",
       " Message('note_off', channel=0, note=39, velocity=64, time=24),\n",
       " Message('note_on', channel=0, note=40, velocity=80, time=24),\n",
       " Message('note_on', channel=0, note=39, velocity=80, time=24),\n",
       " Message('note_off', channel=0, note=40, velocity=64, time=0),\n",
       " Message('note_off', channel=0, note=39, velocity=64, time=24),\n",
       " Message('note_on', channel=0, note=40, velocity=80, time=24),\n",
       " Message('note_on', channel=0, note=39, velocity=80, time=24),\n",
       " Message('note_off', channel=0, note=40, velocity=64, time=0),\n",
       " Message('note_off', channel=0, note=39, velocity=64, time=24),\n",
       " Message('note_on', channel=0, note=40, velocity=80, time=24),\n",
       " Message('note_on', channel=0, note=39, velocity=80, time=24),\n",
       " Message('note_off', channel=0, note=40, velocity=64, time=0),\n",
       " Message('note_off', channel=0, note=39, velocity=64, time=24),\n",
       " Message('note_on', channel=0, note=40, velocity=80, time=24),\n",
       " Message('note_on', channel=0, note=39, velocity=80, time=24),\n",
       " Message('note_off', channel=0, note=40, velocity=64, time=0),\n",
       " Message('note_off', channel=0, note=39, velocity=64, time=24),\n",
       " Message('note_on', channel=0, note=40, velocity=80, time=24),\n",
       " Message('note_off', channel=0, note=40, velocity=64, time=24),\n",
       " Message('note_on', channel=0, note=41, velocity=80, time=0),\n",
       " Message('note_off', channel=0, note=41, velocity=64, time=24),\n",
       " Message('note_on', channel=0, note=40, velocity=80, time=24),\n",
       " Message('note_off', channel=0, note=40, velocity=64, time=24),\n",
       " Message('note_on', channel=0, note=41, velocity=80, time=0),\n",
       " Message('note_off', channel=0, note=41, velocity=64, time=24),\n",
       " Message('note_on', channel=0, note=41, velocity=80, time=24),\n",
       " Message('note_on', channel=0, note=40, velocity=80, time=24),\n",
       " Message('note_off', channel=0, note=41, velocity=64, time=0),\n",
       " Message('note_off', channel=0, note=40, velocity=64, time=24),\n",
       " Message('note_on', channel=0, note=41, velocity=80, time=24),\n",
       " Message('note_on', channel=0, note=40, velocity=80, time=24),\n",
       " Message('note_off', channel=0, note=41, velocity=64, time=0),\n",
       " Message('note_off', channel=0, note=40, velocity=64, time=24),\n",
       " Message('note_on', channel=0, note=40, velocity=80, time=24),\n",
       " Message('note_off', channel=0, note=40, velocity=64, time=24),\n",
       " Message('note_on', channel=0, note=41, velocity=80, time=0),\n",
       " Message('note_off', channel=0, note=41, velocity=64, time=24),\n",
       " Message('note_on', channel=0, note=42, velocity=80, time=0),\n",
       " Message('note_off', channel=0, note=42, velocity=64, time=24),\n",
       " Message('note_on', channel=0, note=44, velocity=80, time=24),\n",
       " Message('note_off', channel=0, note=44, velocity=64, time=24),\n",
       " Message('note_on', channel=0, note=43, velocity=80, time=24),\n",
       " Message('note_off', channel=0, note=43, velocity=64, time=24),\n",
       " Message('note_on', channel=0, note=44, velocity=80, time=0),\n",
       " Message('note_off', channel=0, note=44, velocity=64, time=24),\n",
       " Message('note_on', channel=0, note=43, velocity=80, time=24),\n",
       " Message('note_off', channel=0, note=43, velocity=64, time=24),\n",
       " Message('note_on', channel=0, note=44, velocity=80, time=0),\n",
       " Message('note_off', channel=0, note=44, velocity=64, time=24),\n",
       " Message('note_on', channel=0, note=42, velocity=80, time=24),\n",
       " Message('note_off', channel=0, note=42, velocity=64, time=24),\n",
       " Message('note_on', channel=0, note=43, velocity=80, time=24),\n",
       " Message('note_on', channel=0, note=42, velocity=80, time=24),\n",
       " Message('note_off', channel=0, note=43, velocity=64, time=0),\n",
       " Message('note_off', channel=0, note=42, velocity=64, time=24),\n",
       " Message('note_on', channel=0, note=43, velocity=80, time=24),\n",
       " Message('note_on', channel=0, note=42, velocity=80, time=24),\n",
       " Message('note_off', channel=0, note=43, velocity=64, time=0),\n",
       " Message('note_off', channel=0, note=42, velocity=64, time=24),\n",
       " Message('note_on', channel=0, note=42, velocity=80, time=24),\n",
       " Message('note_off', channel=0, note=42, velocity=64, time=24),\n",
       " Message('note_on', channel=0, note=43, velocity=80, time=0),\n",
       " Message('note_off', channel=0, note=43, velocity=64, time=24),\n",
       " Message('note_on', channel=0, note=42, velocity=80, time=24),\n",
       " Message('note_off', channel=0, note=42, velocity=64, time=24),\n",
       " Message('note_on', channel=0, note=43, velocity=80, time=24),\n",
       " Message('note_on', channel=0, note=42, velocity=80, time=24),\n",
       " Message('note_off', channel=0, note=43, velocity=64, time=0),\n",
       " Message('note_off', channel=0, note=42, velocity=64, time=24),\n",
       " Message('note_on', channel=0, note=44, velocity=80, time=24),\n",
       " Message('note_off', channel=0, note=44, velocity=64, time=24),\n",
       " Message('note_on', channel=0, note=43, velocity=80, time=24),\n",
       " Message('note_off', channel=0, note=43, velocity=64, time=24),\n",
       " Message('note_on', channel=0, note=44, velocity=80, time=0),\n",
       " Message('note_off', channel=0, note=44, velocity=64, time=24),\n",
       " Message('note_on', channel=0, note=43, velocity=80, time=24),\n",
       " Message('note_off', channel=0, note=43, velocity=64, time=24),\n",
       " Message('note_on', channel=0, note=44, velocity=80, time=0),\n",
       " Message('note_off', channel=0, note=44, velocity=64, time=24),\n",
       " Message('note_on', channel=0, note=45, velocity=80, time=24),\n",
       " Message('note_off', channel=0, note=45, velocity=64, time=24),\n",
       " Message('note_on', channel=0, note=44, velocity=80, time=24),\n",
       " Message('note_off', channel=0, note=44, velocity=64, time=24),\n",
       " Message('note_on', channel=0, note=45, velocity=80, time=0),\n",
       " Message('note_off', channel=0, note=45, velocity=64, time=24),\n",
       " Message('note_on', channel=0, note=44, velocity=80, time=24),\n",
       " Message('note_off', channel=0, note=44, velocity=64, time=24),\n",
       " Message('note_on', channel=0, note=45, velocity=80, time=0),\n",
       " Message('note_off', channel=0, note=45, velocity=64, time=24),\n",
       " Message('note_on', channel=0, note=43, velocity=80, time=24),\n",
       " Message('note_off', channel=0, note=43, velocity=64, time=24),\n",
       " Message('note_on', channel=0, note=44, velocity=80, time=24),\n",
       " Message('note_on', channel=0, note=43, velocity=80, time=24),\n",
       " Message('note_off', channel=0, note=44, velocity=64, time=0),\n",
       " Message('note_off', channel=0, note=43, velocity=64, time=24),\n",
       " Message('note_on', channel=0, note=44, velocity=80, time=24),\n",
       " Message('note_on', channel=0, note=43, velocity=80, time=24),\n",
       " Message('note_off', channel=0, note=44, velocity=64, time=0),\n",
       " Message('note_off', channel=0, note=43, velocity=64, time=24),\n",
       " Message('note_on', channel=0, note=43, velocity=80, time=24),\n",
       " Message('note_off', channel=0, note=43, velocity=64, time=24),\n",
       " Message('note_on', channel=0, note=44, velocity=80, time=0),\n",
       " Message('note_off', channel=0, note=44, velocity=64, time=24),\n",
       " Message('note_on', channel=0, note=43, velocity=80, time=24),\n",
       " Message('note_off', channel=0, note=43, velocity=64, time=24),\n",
       " Message('note_on', channel=0, note=44, velocity=80, time=24),\n",
       " Message('note_on', channel=0, note=43, velocity=80, time=24),\n",
       " Message('note_off', channel=0, note=44, velocity=64, time=0),\n",
       " Message('note_off', channel=0, note=43, velocity=64, time=24),\n",
       " Message('note_on', channel=0, note=41, velocity=80, time=24),\n",
       " Message('note_off', channel=0, note=41, velocity=64, time=24),\n",
       " Message('note_on', channel=0, note=42, velocity=80, time=24),\n",
       " Message('note_on', channel=0, note=41, velocity=80, time=24),\n",
       " Message('note_off', channel=0, note=42, velocity=64, time=0),\n",
       " Message('note_off', channel=0, note=41, velocity=64, time=24),\n",
       " Message('note_on', channel=0, note=42, velocity=80, time=24),\n",
       " Message('note_on', channel=0, note=41, velocity=80, time=24),\n",
       " Message('note_off', channel=0, note=42, velocity=64, time=0),\n",
       " Message('note_off', channel=0, note=41, velocity=64, time=24),\n",
       " Message('note_on', channel=0, note=43, velocity=80, time=24),\n",
       " Message('note_off', channel=0, note=43, velocity=64, time=24),\n",
       " Message('note_on', channel=0, note=42, velocity=80, time=24),\n",
       " Message('note_off', channel=0, note=42, velocity=64, time=24),\n",
       " Message('note_on', channel=0, note=43, velocity=80, time=0),\n",
       " Message('note_off', channel=0, note=43, velocity=64, time=24),\n",
       " Message('note_on', channel=0, note=42, velocity=80, time=24),\n",
       " Message('note_off', channel=0, note=42, velocity=64, time=24),\n",
       " Message('note_on', channel=0, note=43, velocity=80, time=0),\n",
       " Message('note_off', channel=0, note=43, velocity=64, time=24),\n",
       " Message('note_on', channel=0, note=41, velocity=80, time=24),\n",
       " Message('note_off', channel=0, note=41, velocity=64, time=24),\n",
       " Message('note_on', channel=0, note=42, velocity=80, time=24),\n",
       " Message('note_on', channel=0, note=41, velocity=80, time=24),\n",
       " Message('note_off', channel=0, note=42, velocity=64, time=0),\n",
       " Message('note_off', channel=0, note=41, velocity=64, time=24),\n",
       " Message('note_on', channel=0, note=42, velocity=80, time=24),\n",
       " Message('note_on', channel=0, note=41, velocity=80, time=24),\n",
       " Message('note_off', channel=0, note=42, velocity=64, time=0),\n",
       " Message('note_off', channel=0, note=41, velocity=64, time=24),\n",
       " Message('note_on', channel=0, note=41, velocity=80, time=24),\n",
       " Message('note_off', channel=0, note=41, velocity=64, time=24),\n",
       " Message('note_on', channel=0, note=42, velocity=80, time=0),\n",
       " Message('note_off', channel=0, note=42, velocity=64, time=24),\n",
       " Message('note_on', channel=0, note=41, velocity=80, time=24),\n",
       " Message('note_off', channel=0, note=41, velocity=64, time=24),\n",
       " Message('note_on', channel=0, note=42, velocity=80, time=24),\n",
       " Message('note_on', channel=0, note=41, velocity=80, time=24),\n",
       " Message('note_off', channel=0, note=42, velocity=64, time=0),\n",
       " Message('note_off', channel=0, note=41, velocity=64, time=24),\n",
       " Message('note_on', channel=0, note=41, velocity=80, time=24),\n",
       " Message('note_off', channel=0, note=41, velocity=64, time=24),\n",
       " Message('note_on', channel=0, note=42, velocity=80, time=0),\n",
       " Message('note_off', channel=0, note=42, velocity=64, time=24),\n",
       " Message('note_on', channel=0, note=41, velocity=80, time=24),\n",
       " Message('note_off', channel=0, note=41, velocity=64, time=24),\n",
       " Message('note_on', channel=0, note=42, velocity=80, time=24),\n",
       " Message('note_on', channel=0, note=41, velocity=80, time=24),\n",
       " Message('note_off', channel=0, note=42, velocity=64, time=0),\n",
       " Message('note_off', channel=0, note=41, velocity=64, time=24),\n",
       " Message('note_on', channel=0, note=41, velocity=80, time=24),\n",
       " Message('note_on', channel=0, note=40, velocity=80, time=24),\n",
       " Message('note_off', channel=0, note=41, velocity=64, time=0),\n",
       " Message('note_on', channel=0, note=39, velocity=80, time=24),\n",
       " Message('note_off', channel=0, note=40, velocity=64, time=0),\n",
       " Message('note_off', channel=0, note=39, velocity=64, time=24),\n",
       " Message('note_on', channel=0, note=40, velocity=80, time=24),\n",
       " Message('note_on', channel=0, note=39, velocity=80, time=24),\n",
       " Message('note_off', channel=0, note=40, velocity=64, time=0),\n",
       " Message('note_off', channel=0, note=39, velocity=64, time=24),\n",
       " Message('note_on', channel=0, note=40, velocity=80, time=24),\n",
       " Message('note_on', channel=0, note=39, velocity=80, time=24),\n",
       " Message('note_off', channel=0, note=40, velocity=64, time=0),\n",
       " Message('note_off', channel=0, note=39, velocity=64, time=24),\n",
       " Message('note_on', channel=0, note=40, velocity=80, time=24),\n",
       " Message('note_on', channel=0, note=39, velocity=80, time=24),\n",
       " Message('note_off', channel=0, note=40, velocity=64, time=0),\n",
       " Message('note_off', channel=0, note=39, velocity=64, time=24),\n",
       " Message('note_on', channel=0, note=40, velocity=80, time=24),\n",
       " Message('note_on', channel=0, note=39, velocity=80, time=24),\n",
       " Message('note_off', channel=0, note=40, velocity=64, time=0),\n",
       " Message('note_off', channel=0, note=39, velocity=64, time=24),\n",
       " Message('note_on', channel=0, note=40, velocity=80, time=24),\n",
       " Message('note_off', channel=0, note=40, velocity=64, time=24),\n",
       " Message('note_on', channel=0, note=41, velocity=80, time=0),\n",
       " Message('note_off', channel=0, note=41, velocity=64, time=24),\n",
       " Message('note_on', channel=0, note=40, velocity=80, time=24),\n",
       " Message('note_off', channel=0, note=40, velocity=64, time=24),\n",
       " Message('note_on', channel=0, note=41, velocity=80, time=0),\n",
       " Message('note_off', channel=0, note=41, velocity=64, time=24),\n",
       " Message('note_on', channel=0, note=41, velocity=80, time=24),\n",
       " Message('note_on', channel=0, note=40, velocity=80, time=24),\n",
       " Message('note_off', channel=0, note=41, velocity=64, time=0),\n",
       " Message('note_off', channel=0, note=40, velocity=64, time=24),\n",
       " Message('note_on', channel=0, note=41, velocity=80, time=24),\n",
       " Message('note_on', channel=0, note=40, velocity=80, time=24),\n",
       " Message('note_off', channel=0, note=41, velocity=64, time=0),\n",
       " Message('note_off', channel=0, note=40, velocity=64, time=24),\n",
       " Message('note_on', channel=0, note=40, velocity=80, time=24),\n",
       " Message('note_off', channel=0, note=40, velocity=64, time=24),\n",
       " Message('note_on', channel=0, note=41, velocity=80, time=0),\n",
       " Message('note_off', channel=0, note=41, velocity=64, time=24),\n",
       " Message('note_on', channel=0, note=42, velocity=80, time=0),\n",
       " Message('note_off', channel=0, note=42, velocity=64, time=24),\n",
       " Message('note_on', channel=0, note=44, velocity=80, time=24),\n",
       " Message('note_off', channel=0, note=44, velocity=64, time=24),\n",
       " Message('note_on', channel=0, note=43, velocity=80, time=24),\n",
       " Message('note_off', channel=0, note=43, velocity=64, time=24),\n",
       " Message('note_on', channel=0, note=44, velocity=80, time=0),\n",
       " Message('note_off', channel=0, note=44, velocity=64, time=24),\n",
       " Message('note_on', channel=0, note=43, velocity=80, time=24),\n",
       " Message('note_off', channel=0, note=43, velocity=64, time=24),\n",
       " Message('note_on', channel=0, note=44, velocity=80, time=0),\n",
       " Message('note_off', channel=0, note=44, velocity=64, time=24),\n",
       " Message('note_on', channel=0, note=42, velocity=80, time=24),\n",
       " Message('note_off', channel=0, note=42, velocity=64, time=24),\n",
       " Message('note_on', channel=0, note=43, velocity=80, time=24),\n",
       " Message('note_on', channel=0, note=42, velocity=80, time=24),\n",
       " Message('note_off', channel=0, note=43, velocity=64, time=0),\n",
       " Message('note_off', channel=0, note=42, velocity=64, time=24),\n",
       " Message('note_on', channel=0, note=43, velocity=80, time=24),\n",
       " Message('note_on', channel=0, note=42, velocity=80, time=24),\n",
       " Message('note_off', channel=0, note=43, velocity=64, time=0),\n",
       " Message('note_off', channel=0, note=42, velocity=64, time=24),\n",
       " Message('note_on', channel=0, note=42, velocity=80, time=24),\n",
       " Message('note_off', channel=0, note=42, velocity=64, time=24),\n",
       " Message('note_on', channel=0, note=43, velocity=80, time=0),\n",
       " Message('note_off', channel=0, note=43, velocity=64, time=24),\n",
       " Message('note_on', channel=0, note=42, velocity=80, time=24),\n",
       " Message('note_off', channel=0, note=42, velocity=64, time=24),\n",
       " Message('note_on', channel=0, note=43, velocity=80, time=24),\n",
       " Message('note_on', channel=0, note=42, velocity=80, time=24),\n",
       " Message('note_off', channel=0, note=43, velocity=64, time=0),\n",
       " Message('note_off', channel=0, note=42, velocity=64, time=24),\n",
       " Message('note_on', channel=0, note=44, velocity=80, time=24),\n",
       " Message('note_off', channel=0, note=44, velocity=64, time=24),\n",
       " Message('note_on', channel=0, note=43, velocity=80, time=24),\n",
       " Message('note_off', channel=0, note=43, velocity=64, time=24),\n",
       " Message('note_on', channel=0, note=44, velocity=80, time=0),\n",
       " Message('note_off', channel=0, note=44, velocity=64, time=24),\n",
       " Message('note_on', channel=0, note=43, velocity=80, time=24),\n",
       " Message('note_off', channel=0, note=43, velocity=64, time=24),\n",
       " Message('note_on', channel=0, note=44, velocity=80, time=0),\n",
       " Message('note_off', channel=0, note=44, velocity=64, time=24),\n",
       " Message('note_on', channel=0, note=45, velocity=80, time=24),\n",
       " Message('note_off', channel=0, note=45, velocity=64, time=24),\n",
       " Message('note_on', channel=0, note=44, velocity=80, time=24),\n",
       " Message('note_off', channel=0, note=44, velocity=64, time=24),\n",
       " Message('note_on', channel=0, note=45, velocity=80, time=0),\n",
       " Message('note_off', channel=0, note=45, velocity=64, time=24),\n",
       " Message('note_on', channel=0, note=44, velocity=80, time=24),\n",
       " Message('note_off', channel=0, note=44, velocity=64, time=24),\n",
       " Message('note_on', channel=0, note=45, velocity=80, time=0),\n",
       " Message('note_off', channel=0, note=45, velocity=64, time=24),\n",
       " Message('note_on', channel=0, note=43, velocity=80, time=24),\n",
       " Message('note_off', channel=0, note=43, velocity=64, time=24),\n",
       " Message('note_on', channel=0, note=44, velocity=80, time=24),\n",
       " Message('note_on', channel=0, note=43, velocity=80, time=24),\n",
       " Message('note_off', channel=0, note=44, velocity=64, time=0),\n",
       " Message('note_off', channel=0, note=43, velocity=64, time=24),\n",
       " Message('note_on', channel=0, note=44, velocity=80, time=24),\n",
       " Message('note_on', channel=0, note=43, velocity=80, time=24),\n",
       " Message('note_off', channel=0, note=44, velocity=64, time=0),\n",
       " Message('note_off', channel=0, note=43, velocity=64, time=24),\n",
       " Message('note_on', channel=0, note=43, velocity=80, time=24),\n",
       " Message('note_off', channel=0, note=43, velocity=64, time=24),\n",
       " Message('note_on', channel=0, note=44, velocity=80, time=0),\n",
       " Message('note_off', channel=0, note=44, velocity=64, time=24),\n",
       " Message('note_on', channel=0, note=43, velocity=80, time=24),\n",
       " Message('note_off', channel=0, note=43, velocity=64, time=24),\n",
       " Message('note_on', channel=0, note=44, velocity=80, time=24),\n",
       " Message('note_on', channel=0, note=43, velocity=80, time=24),\n",
       " Message('note_off', channel=0, note=44, velocity=64, time=0),\n",
       " Message('note_off', channel=0, note=43, velocity=64, time=24),\n",
       " Message('note_on', channel=0, note=41, velocity=80, time=24),\n",
       " Message('note_off', channel=0, note=41, velocity=64, time=24),\n",
       " Message('note_on', channel=0, note=42, velocity=80, time=24),\n",
       " Message('note_on', channel=0, note=41, velocity=80, time=24),\n",
       " Message('note_off', channel=0, note=42, velocity=64, time=0),\n",
       " Message('note_off', channel=0, note=41, velocity=64, time=24),\n",
       " Message('note_on', channel=0, note=42, velocity=80, time=24),\n",
       " Message('note_on', channel=0, note=41, velocity=80, time=24),\n",
       " Message('note_off', channel=0, note=42, velocity=64, time=0),\n",
       " Message('note_off', channel=0, note=41, velocity=64, time=24),\n",
       " Message('note_on', channel=0, note=43, velocity=80, time=24),\n",
       " Message('note_off', channel=0, note=43, velocity=64, time=24),\n",
       " Message('note_on', channel=0, note=42, velocity=80, time=24),\n",
       " Message('note_off', channel=0, note=42, velocity=64, time=24),\n",
       " Message('note_on', channel=0, note=43, velocity=80, time=0),\n",
       " Message('note_off', channel=0, note=43, velocity=64, time=24),\n",
       " Message('note_on', channel=0, note=42, velocity=80, time=24),\n",
       " Message('note_off', channel=0, note=42, velocity=64, time=24),\n",
       " Message('note_on', channel=0, note=43, velocity=80, time=0),\n",
       " Message('note_off', channel=0, note=43, velocity=64, time=24),\n",
       " Message('note_on', channel=0, note=41, velocity=80, time=24),\n",
       " Message('note_off', channel=0, note=41, velocity=64, time=24),\n",
       " Message('note_on', channel=0, note=42, velocity=80, time=24),\n",
       " Message('note_on', channel=0, note=41, velocity=80, time=24),\n",
       " Message('note_off', channel=0, note=42, velocity=64, time=0),\n",
       " Message('note_off', channel=0, note=41, velocity=64, time=24),\n",
       " Message('note_on', channel=0, note=42, velocity=80, time=24),\n",
       " Message('note_on', channel=0, note=41, velocity=80, time=24),\n",
       " Message('note_off', channel=0, note=42, velocity=64, time=0),\n",
       " Message('note_off', channel=0, note=41, velocity=64, time=24),\n",
       " Message('note_on', channel=0, note=41, velocity=80, time=24),\n",
       " Message('note_off', channel=0, note=41, velocity=64, time=24),\n",
       " Message('note_on', channel=0, note=42, velocity=80, time=0),\n",
       " Message('note_off', channel=0, note=42, velocity=64, time=24),\n",
       " Message('note_on', channel=0, note=41, velocity=80, time=24),\n",
       " Message('note_off', channel=0, note=41, velocity=64, time=24),\n",
       " Message('note_on', channel=0, note=42, velocity=80, time=24),\n",
       " Message('note_on', channel=0, note=41, velocity=80, time=24),\n",
       " Message('note_off', channel=0, note=42, velocity=64, time=0),\n",
       " Message('note_off', channel=0, note=41, velocity=64, time=24),\n",
       " Message('note_on', channel=0, note=41, velocity=80, time=24),\n",
       " Message('note_off', channel=0, note=41, velocity=64, time=24),\n",
       " Message('note_on', channel=0, note=42, velocity=80, time=0),\n",
       " Message('note_off', channel=0, note=42, velocity=64, time=24),\n",
       " Message('note_on', channel=0, note=41, velocity=80, time=24),\n",
       " Message('note_off', channel=0, note=41, velocity=64, time=24),\n",
       " Message('note_on', channel=0, note=42, velocity=80, time=24),\n",
       " Message('note_off', channel=0, note=42, velocity=64, time=24)]"
      ]
     },
     "execution_count": 39,
     "metadata": {},
     "output_type": "execute_result"
    }
   ],
   "source": [
    "messages = [msg for msg  in mid.tracks[0] if isinstance(msg, Message)]\n",
    "messages"
   ]
  },
  {
   "cell_type": "code",
   "execution_count": 3,
   "metadata": {},
   "outputs": [
    {
     "data": {
      "text/plain": [
       "[3, 4, 5, 6, 7, 8, 9]"
      ]
     },
     "execution_count": 3,
     "metadata": {},
     "output_type": "execute_result"
    }
   ],
   "source": [
    "l = [1,2,3,4,5,6,7,8,9]\n",
    "l[2:]"
   ]
  }
 ],
 "metadata": {
  "kernelspec": {
   "display_name": ".venv",
   "language": "python",
   "name": "python3"
  },
  "language_info": {
   "codemirror_mode": {
    "name": "ipython",
    "version": 3
   },
   "file_extension": ".py",
   "mimetype": "text/x-python",
   "name": "python",
   "nbconvert_exporter": "python",
   "pygments_lexer": "ipython3",
   "version": "3.12.4"
  }
 },
 "nbformat": 4,
 "nbformat_minor": 2
}
